{
	"asset":{
		"generator":"Khronos glTF Blender I/O v4.0.44",
		"version":"2.0"
	},
	"scene":0,
	"scenes":[
		{
			"name":"Scene",
			"nodes":[
				1
			]
		}
	],
	"nodes":[
		{
			"mesh":0,
			"name":"leaves"
		},
		{
			"children":[
				0
			],
			"mesh":1,
			"name":"tree.001"
		}
	],
	"materials":[
		{
			"doubleSided":true,
			"name":"Material.002",
			"pbrMetallicRoughness":{
				"baseColorFactor":[
					0.800000011920929,
					0.800000011920929,
					0.800000011920929,
					1
				],
				"metallicFactor":0,
				"roughnessFactor":0.5
			}
		},
		{
			"doubleSided":true,
			"name":"Material.001",
			"pbrMetallicRoughness":{
				"baseColorFactor":[
					0.800000011920929,
					0.800000011920929,
					0.800000011920929,
					1
				],
				"metallicFactor":0,
				"roughnessFactor":0.5
			}
		}
	],
	"meshes":[
		{
			"name":"leaves",
			"primitives":[
				{
					"attributes":{
						"POSITION":0,
						"NORMAL":1,
						"TEXCOORD_0":2
					},
					"indices":3,
					"material":0
				}
			]
		},
		{
			"name":"tree.007",
			"primitives":[
				{
					"attributes":{
						"POSITION":4,
						"NORMAL":5,
						"TEXCOORD_0":6
					},
					"indices":7,
					"material":1
				}
			]
		}
	],
	"accessors":[
		{
			"bufferView":0,
			"componentType":5126,
			"count":187276,
			"max":[
				2.017954111099243,
				5.346319675445557,
				2.3922035694122314
			],
			"min":[
				-2.2216200828552246,
				0.7134316563606262,
				-2.0114986896514893
			],
			"type":"VEC3"
		},
		{
			"bufferView":1,
			"componentType":5126,
			"count":187276,
			"type":"VEC3"
		},
		{
			"bufferView":2,
			"componentType":5126,
			"count":187276,
			"type":"VEC2"
		},
		{
			"bufferView":3,
			"componentType":5125,
			"count":280914,
			"type":"SCALAR"
		},
		{
			"bufferView":4,
			"componentType":5126,
			"count":121810,
			"max":[
				1.8082035779953003,
				5.101251602172852,
				2.1924667358398438
			],
			"min":[
				-1.9837391376495361,
				0,
				-1.798128366470337
			],
			"type":"VEC3"
		},
		{
			"bufferView":5,
			"componentType":5126,
			"count":121810,
			"type":"VEC3"
		},
		{
			"bufferView":6,
			"componentType":5126,
			"count":121810,
			"type":"VEC2"
		},
		{
			"bufferView":7,
			"componentType":5125,
			"count":573984,
			"type":"SCALAR"
		}
	],
	"bufferViews":[
		{
			"buffer":0,
			"byteLength":2247312,
			"byteOffset":0,
			"target":34962
		},
		{
			"buffer":0,
			"byteLength":2247312,
			"byteOffset":2247312,
			"target":34962
		},
		{
			"buffer":0,
			"byteLength":1498208,
			"byteOffset":4494624,
			"target":34962
		},
		{
			"buffer":0,
			"byteLength":1123656,
			"byteOffset":5992832,
			"target":34963
		},
		{
			"buffer":0,
			"byteLength":1461720,
			"byteOffset":7116488,
			"target":34962
		},
		{
			"buffer":0,
			"byteLength":1461720,
			"byteOffset":8578208,
			"target":34962
		},
		{
			"buffer":0,
			"byteLength":974480,
			"byteOffset":10039928,
			"target":34962
		},
		{
			"buffer":0,
			"byteLength":2295936,
			"byteOffset":11014408,
			"target":34963
		}
	],
	"buffers":[
		{
			"byteLength":13310344,
			"uri":"tree3.bin"
		}
	]
}
